<svg xmlns="http://www.w3.org/2000/svg" viewBox="280 80 400 400"><g fill="#D99054"><path d="M668.721 170.486l-94.36-20.246h-1.823l-92.993 20.246-93.449-19.786h-1.824l-93.904 19.786c-2.279.46-3.647 2.301-3.647 4.602v230.07c0 1.38.456 2.761 1.823 3.682.911.46 1.824.92 2.735.92h.912l93.449-19.785 93.449 19.785h1.822l93.45-19.785 93.449 19.785h.911c.911 0 2.279-.46 2.735-.92.911-.921 1.823-2.302 1.823-3.682v-230.07c-.912-2.301-2.279-4.142-4.558-4.602zm-372.884 8.283l84.788-18.405V381.23l-84.788 18.405V178.769zm93.905-18.406l85.244 18.405v220.867l-85.244-18.405V160.363zm94.361 18.406l85.243-18.405V381.23l-85.243 18.405V178.769zM663.25 399.636l-84.787-18.405V160.363l84.787 18.405v220.868z"/><path d="M408.888 284.142l-3.647 2.761c-1.823 1.381-2.279 4.602-.911 6.44.911 1.382 2.279 1.842 3.647 1.842.911 0 1.823-.46 2.734-.92l3.647-2.761c1.824-1.381 2.278-4.602.912-6.442-1.368-1.841-4.103-2.302-6.382-.92zm49.687 0c-1.824-1.382-5.015-.921-6.382.92-1.368 1.841-.912 5.062.911 6.442l3.647 2.761c.912.46 1.824.92 2.736.92 1.367 0 2.734-.46 3.646-1.842 1.368-1.839.912-5.06-.912-6.44l-3.646-2.761zm-95.272 0c-1.824-1.382-5.015-.921-6.383.92-1.367 1.841-.911 5.062.912 6.442l3.647 2.761c.912.46 1.824.92 2.735.92 1.368 0 2.736-.46 3.647-1.842 1.367-1.839.912-5.06-.911-6.44l-3.647-2.761zm236.129 11.503c.913 0 1.823-.46 2.735-.92l3.646-2.761c1.824-1.381 2.279-4.602.912-6.442-1.368-1.84-4.559-2.301-6.381-.92l-3.647 2.761c-1.825 1.38-2.279 4.602-.913 6.441.913.921 2.279 1.841 3.648 1.841zm-163.193-20.247h-4.559c-2.735 0-4.559 2.301-4.103 4.602 0 2.301 2.279 4.602 4.559 4.602h4.103c2.279 0 4.558-1.842 4.558-4.602 0-2.301-1.823-4.602-4.558-4.602zm95.272 0h-4.559c-2.734 0-4.559 2.301-4.102 5.062 0 2.3 2.279 4.142 4.559 4.142h4.557c2.735 0 4.56-1.842 4.56-4.602-.457-2.301-2.281-4.602-5.015-4.602zm22.792 8.284c-1.824-1.381-5.015-.922-6.382.92-1.368 1.84-.911 5.061.912 6.441l3.646 2.761c.913.461 1.824.921 2.736.921 1.367 0 2.734-.46 3.646-1.841 1.368-1.841.911-5.062-.912-6.442l-3.646-2.76zm-49.688.92l-3.646 2.761c-1.822 1.38-2.279 4.602-.911 6.441.911 1.381 2.279 1.841 3.646 1.841.911 0 1.823-.46 2.735-.92l3.646-2.761c1.823-1.381 2.279-4.602.911-6.442-1.822-2.301-4.557-2.762-6.381-.92z"/><ellipse cx="338.231" cy="280" rx="8.206" ry="8.283"/><path d="M614.475 295.185c.911.921 2.279 1.381 3.191 1.381.91 0 2.279-.46 3.189-1.381l4.56-4.602 4.558 4.602c.912.921 2.28 1.381 3.191 1.381.912 0 2.279-.46 3.191-1.381 1.822-1.842 1.822-4.602 0-6.442l-4.56-4.601 4.56-4.602c1.822-1.841 1.822-4.602 0-6.442-1.823-1.84-4.56-1.84-6.383 0l-4.558 4.602-4.56-4.602c-1.823-1.84-4.558-1.84-6.381 0-1.824 1.84-1.824 4.602 0 6.442l4.558 4.602-4.558 4.601c-1.823 1.84-1.823 4.6.002 6.442z"/></g></svg>