<svg xmlns="http://www.w3.org/2000/svg" viewBox="280 80 400 400"><g fill="#D99054"><path d="M523.68 230.16h-179.2c-3.36 0-5.6 2.24-5.6 5.6 0 3.36 2.24 5.6 5.6 5.6h179.2c3.36 0 5.601-2.24 5.601-5.6-.001-3.36-2.801-5.6-5.601-5.6zm25.2 0h-6.16c-3.359 0-5.6 2.24-5.6 5.6 0 3.36 2.24 5.6 5.6 5.6h6.16c3.36 0 5.601-2.24 5.601-5.6-.001-3.36-2.801-5.6-5.601-5.6z"/><path d="M650.8 339.92c0-43.68-31.92-80.08-75.04-86.24v-13.44c8.96-3.92 14.561-14 12.32-24.08-1.68-10.64-11.2-18.48-22.4-18.48H332.16c-11.2 0-20.72 7.84-22.4 18.48-1.68 10.08 3.36 20.16 12.32 24.08V431.2c0 22.96 19.04 42 42 42h170.24c22.96 0 42-19.04 42-42v-5.6c42.56-5.6 74.48-42 74.48-85.68zm-75.04-43.68c19.601 5.039 33.04 22.96 33.04 43.12 0 20.72-13.439 38.08-33.04 43.12v-86.24zm-11.2-58.8V431.2c0 16.8-14 30.8-30.8 30.8H363.52c-16.8 0-30.8-14-30.8-30.8V237.44c0-3.36-2.24-5.6-5.04-6.72-4.48-1.12-8.96-6.16-7.84-12.88 1.12-5.04 5.6-8.96 11.76-8.96h234.08c5.601 0 10.641 3.92 11.761 8.96 1.119 6.16-2.801 11.2-7.841 12.88-2.8.56-5.04 3.36-5.04 6.72zm11.2 176.96v-19.6c25.76-5.6 44.24-28 44.24-54.88s-18.48-49.279-44.24-54.88v-19.6c36.4 5.6 63.84 36.96 63.84 74.48s-26.88 68.88-63.84 74.48zM439.68 130.48c5.04 3.92 7.84 6.72 7.84 11.76s-2.8 7.84-7.84 11.76c-1.68 1.12-3.359 2.8-4.479 3.92-2.24 2.24-2.24 5.6 0 7.84 1.12 1.12 2.8 1.68 3.92 1.68 1.68 0 2.8-.56 3.92-1.68 1.12-1.12 2.8-2.24 3.92-3.36 5.04-4.48 11.76-9.52 11.76-20.16s-6.72-16.24-11.76-20.16-7.84-6.72-7.84-11.76 2.8-7.84 7.84-11.76l2.24-1.68c2.24-2.24 2.8-5.6.56-7.84-2.24-2.24-5.6-2.8-7.84-.56l-1.68 1.68c-5.04 4.48-11.76 9.52-11.76 20.16-.001 10.64 5.599 16.24 11.199 20.16z"/></g></svg>