<svg xmlns="http://www.w3.org/2000/svg" viewBox="280 80 400 400"><g fill="#D99054"><path d="M642.96 340.48v-85.12c0-89.6-73.36-162.96-162.96-162.96-89.6 0-162.96 72.8-162.96 162.96v85.121c-16.8 2.239-30.24 16.8-30.24 34.72v57.68c0 19.04 15.68 34.72 34.72 34.72h315.842c19.041 0 34.721-15.68 34.721-34.72V375.2c1.117-17.92-12.323-32.48-29.123-34.72zm-315.28 10.64h17.36l.56 105.28h-17.36l-.56-105.28zm28.56 0h17.36l.56 105.28H356.8l-.56-105.28zm28.56 0h17.36l.56 105.28h-17.36l-.56-105.28zm28.56 0h17.359l.561 105.28h-17.36l-.56-105.28zm28.56 0h17.36l.56 105.28h-17.36l-.56-105.28zm28.56 0h17.359l.561 105.28h-17.36l-.56-105.28zm29.12 0h17.36l.56 105.28h-17.36l-.56-105.28zm28.56 0h17.359l.561 105.28h-17.36l-.56-105.28zm28.56 0h17.36l.56 105.28h-17.36l-.56-105.28zm28.56 0h17.359l.561 105.28h-17.36l-.56-105.28zm28.56 0h17.36l.56 105.28H614.4l-.56-105.28zm-285.6-95.76c0-83.44 68.319-151.76 151.76-151.76s151.76 68.32 151.76 151.76v84.56H328.24v-84.56zM298 432.88V375.2c0-11.2 7.84-20.72 18.48-22.96l.56 104.16C306.4 454.16 298 444.08 298 432.88zm364 0c0 11.2-7.84 20.72-18.48 22.96l-1.12-104.16c11.2 2.24 19.6 11.76 19.6 23.52v57.68z"/><path d="M473.28 182.56c1.12 1.12 2.239 1.68 3.92 1.68 1.68 0 2.8-.56 3.92-1.68l21.28-21.28c2.239-2.24 2.239-5.6 0-7.84-2.24-2.24-5.601-2.24-7.841 0l-16.8 16.8-16.8-16.8c-2.24-2.24-5.6-2.24-7.84 0s-2.24 5.6 0 7.84l20.161 21.28zm-43.68 62.72c1.12 1.12 2.24 1.68 3.92 1.68 1.681 0 2.801-.56 3.921-1.68L458.72 224c2.24-2.24 2.24-5.6 0-7.84-2.239-2.24-5.6-2.24-7.84 0l-16.8 16.8-16.8-16.8c-2.24-2.24-5.601-2.24-7.84 0-2.24 2.24-2.24 5.6 0 7.84l20.16 21.28zm66.64-29.12c-2.24 2.24-2.24 5.6 0 7.84l21.279 21.28c1.12 1.12 2.24 1.68 3.921 1.68 1.68 0 2.8-.56 3.92-1.68L546.64 224c2.24-2.24 2.24-5.6 0-7.84-2.239-2.24-5.6-2.24-7.84 0l-16.8 16.8-16.8-16.8c-2.8-2.24-6.72-2.24-8.96 0zM387.6 306.32c1.12 1.12 2.8 1.68 3.92 1.68s2.8-.56 3.92-1.68l21.28-21.28c2.24-2.24 2.24-5.6 0-7.84-2.239-2.24-5.6-2.24-7.84 0l-16.8 16.8-16.8-16.8c-2.24-2.24-5.6-2.24-7.84 0s-2.24 5.6 0 7.84l20.16 21.28zm106.96-29.12l-16.8 16.8-16.8-16.8c-2.24-2.24-5.6-2.24-7.84 0s-2.24 5.6 0 7.84l21.28 21.28c1.119 1.12 2.8 1.68 3.92 1.68 1.119 0 2.8-.56 3.92-1.68l21.279-21.28c2.24-2.24 2.24-5.6 0-7.84-2.239-2.24-6.719-2.24-8.959 0zm43.68 0c-2.24 2.24-2.24 5.6 0 7.84l21.279 21.28c1.12 1.12 2.801 1.68 3.921 1.68 1.119 0 2.8-.56 3.92-1.68l21.279-21.28c2.24-2.24 2.24-5.6 0-7.84-2.239-2.24-5.6-2.24-7.84 0L564 294l-16.8-16.8c-3.36-2.24-6.72-2.24-8.96 0z"/></g></svg>