<svg xmlns="http://www.w3.org/2000/svg" width="392" height="70"><path fill="#FFF" d="M63.798.926h3.969v34.297h-3.969V.926zm20.383 6.418h-.098c0 .049.098 3.969.098 8.231v19.647h-3.969V.926h4.018l20.088 27.634h.098c0-.05-.098-4.067-.098-8.036V.926h4.018v34.297h-4.067L84.181 7.344zm59.435 11.858h-18.913v16.021h-3.969V.926h3.969v14.453h18.913V.926h4.018v34.297h-4.018V19.202zm21.856 6.908l-3.822 9.113h-4.263L171.988.926h4.361l14.601 34.297h-4.263l-3.821-9.113h-17.394zm12.102-12.592c-1.323-3.136-3.332-7.986-3.381-8.035h-.098c-.049.049-2.058 4.899-3.332 7.986l-3.773 9.015h14.356l-3.772-8.966zm40.424 3.381c3.234.539 7.791 2.939 7.791 8.77 0 5.782-4.164 9.555-11.71 9.555h-13.278V.926h12.348c6.271 0 10.24 3.625 10.24 8.427 0 4.508-2.891 6.811-5.391 7.398v.148zm-5.242-1.274c3.822 0 6.615-1.96 6.615-5.684 0-3.381-2.598-5.585-7.007-5.585h-7.595v11.269h7.987zm1.127 16.168c4.605 0 7.742-2.106 7.742-6.32 0-4.312-3.627-6.713-7.84-6.713h-9.016v13.033h9.114zM236.227.926h3.969v34.297h-3.969V.926zm30.231 3.724v30.573h-4.018V4.65h-11.759V.926h27.584V4.65h-11.807zM288.754.926h23.077V4.65h-19.108v10.779h14.895v3.724h-14.895V31.5h19.207v3.724h-23.176V.926zm38.268 6.418h-.098c0 .049.098 3.969.098 8.231v19.647h-3.969V.926h4.019L347.16 28.56h.098c0-.05-.098-4.067-.098-8.036V.926h4.018v34.297h-4.066l-20.09-27.879zm50.371-2.694v30.573h-4.018V4.65h-11.758V.926h27.584V4.65h-11.808zM78.186 63.309c-1.512 3.695-5.012 5.879-9.156 5.879-5.712 0-10.08-4.031-10.08-10.221 0-6.158 4.34-10.135 10.08-10.135 4.536 0 7.672 2.463 8.904 5.348l-2.212.615c-.728-1.344-2.66-3.807-6.748-3.807-4.536 0-7.728 3.08-7.728 8.008 0 4.955 3.36 8.008 7.672 8.008 3.192 0 5.824-1.652 7.056-4.283l2.212.588zm9.1.306l-2.184 5.209h-2.436l8.344-19.6h2.492l8.344 19.6H99.41l-2.184-5.209h-9.94zm6.916-7.195c-.756-1.793-1.904-4.564-1.932-4.592h-.056c-.028.027-1.176 2.799-1.904 4.564l-2.156 5.15h8.204l-2.156-5.122zm29.148 3.584c0-3.023.084-7.057.084-7.084h-.056c-.028.027-.784 1.596-2.548 4.732l-3.584 6.355h-1.372l-3.556-6.271c-1.82-3.221-2.548-4.789-2.576-4.816h-.056c0 .027.056 4.061.056 7.084v8.82h-2.268v-19.6h2.408l6.664 11.928h.056l6.692-11.928h2.352v19.6h-2.296v-8.82zm15.315-10.779c4.564 0 7.308 2.1 7.308 6.104 0 3.893-2.744 6.076-7.308 6.076h-3.668v7.42h-2.268v-19.6h5.936zm.056 10.164c3.276 0 4.956-1.43 4.956-4.033 0-2.771-1.848-4.031-4.956-4.031h-3.724v8.064h3.724zm12.936-10.164h2.268v19.6h-2.268v-19.6zm11.647 3.668h-.056c0 .027.056 2.268.056 4.703v11.229h-2.268v-19.6h2.296l11.48 15.791h.056c0-.027-.056-2.324-.056-4.592V49.225h2.296v19.6h-2.324l-11.48-15.932zm37.128 15.931c0-2.24.028-2.576.028-2.828h-.056c-.952 1.092-3.389 3.191-7.252 3.191-5.572 0-10.052-4.031-10.052-10.191 0-6.188 4.368-10.164 10.136-10.164 4.481 0 7.672 2.436 8.905 5.348l-2.24.615c-.645-1.203-2.492-3.807-6.72-3.807-4.536 0-7.784 3.08-7.784 7.979 0 4.984 3.416 8.037 7.896 8.037 3.696 0 6.272-2.045 7.056-3.5v-2.801h-5.824v-2.127h7.953v10.248h-2.046zm19.488-5.74c.225 2.799 2.548 4.061 5.544 4.061 2.856 0 4.592-1.148 4.592-3.5 0-3.221-3.248-3.389-5.685-3.92-2.659-.617-6.075-1.568-6.075-5.545 0-3.416 2.521-5.348 6.636-5.348 3.641 0 6.328 1.512 7.168 4.871l-2.184.588c-.532-2.154-2.129-3.416-5.012-3.416-2.856 0-4.285 1.232-4.285 3.221 0 2.604 2.465 3.164 5.265 3.725 2.912.559 6.496 1.484 6.496 5.795 0 3.697-2.576 5.572-6.944 5.572-3.304 0-7.084-1.092-7.699-5.516l2.183-.588zm33.824-2.436c0 5.543-2.772 8.539-7.84 8.539-5.097 0-7.841-2.996-7.841-8.539V49.225h2.324v11.424c0 4.256 1.735 6.355 5.517 6.355 3.807 0 5.571-2.1 5.571-6.355V49.225h2.269v11.423zm12.795-11.423c4.564 0 7.309 2.1 7.309 6.104 0 3.893-2.744 6.076-7.309 6.076h-3.668v7.42h-2.268v-19.6h5.936zm.057 10.164c3.275 0 4.955-1.43 4.955-4.033 0-2.771-1.848-4.031-4.955-4.031h-3.725v8.064h3.725zm18.871-10.164c4.564 0 7.309 2.1 7.309 6.104 0 3.893-2.744 6.076-7.309 6.076h-3.668v7.42h-2.268v-19.6h5.936zm.056 10.164c3.275 0 4.955-1.43 4.955-4.033 0-2.771-1.848-4.031-4.955-4.031h-3.725v8.064h3.725zm12.936-10.164h2.268v17.471h10.332v2.129h-12.6v-19.6zm23.129 19.599h-2.297v-8.512l-7.56-11.088h2.632l4.396 6.439c1.008 1.455 1.707 2.52 1.735 2.547h.056c.028-.027.672-1.062 1.681-2.49l4.452-6.496h2.492l-7.588 11.088v8.512zm40.963-5.515c-1.512 3.695-5.012 5.879-9.155 5.879-5.712 0-10.08-4.031-10.08-10.221 0-6.158 4.34-10.135 10.08-10.135 4.536 0 7.672 2.463 8.903 5.348l-2.211.615c-.729-1.344-2.66-3.807-6.748-3.807-4.537 0-7.729 3.08-7.729 8.008 0 4.955 3.359 8.008 7.672 8.008 3.192 0 5.824-1.652 7.057-4.283l2.211.588zm12.965-10.473c4.647 0 8.231 3.416 8.231 8.176 0 4.703-3.584 8.148-8.231 8.148-4.648 0-8.232-3.445-8.232-8.148-.001-4.76 3.583-8.176 8.232-8.176zm0 14.309c3.416 0 6.02-2.521 6.02-6.133 0-3.668-2.604-6.16-6.02-6.16s-6.021 2.492-6.021 6.16c0 3.611 2.605 6.133 6.021 6.133zm12.992.531c0-.783.531-1.4 1.512-1.4s1.512.617 1.512 1.4-.531 1.428-1.512 1.428c-1.008 0-1.512-.645-1.512-1.428z"/><g fill="#248A83"><path d="M23.513.838L1.719 23.109l3.397 3.472L23.521 7.774l18.405 18.807 3.397-3.472L23.503.812z"/><path d="M23.513 16.989L1.719 39.26l3.397 3.47 18.405-18.807L41.926 42.73l3.397-3.47-21.82-22.299z"/><path d="M23.513 33.138L1.719 55.408l3.397 3.473 18.405-18.809 18.405 18.809 3.397-3.473-21.82-22.296z"/><path fill-rule="evenodd" d="M21.099 6.106h4.845V69.09h-4.845z" clip-rule="evenodd"/></g></svg>